# xmcd
#
# Track frame offsets: 
#        150
#        14176
#        33799
#        47622
#        60941
#        72382
#        86662
#        99415
#        113849
#        127260
#
# Disc length: 1862 seconds
#
# Revision: 2
# Processed by: cddbd v1.5.2PL0 Copyright (c) Steve Scherf et al.
# Submitted via: ExactAudioCopy v1.3
#
DISCID=8407440a
DTITLE=Marty Robbins - Best Of Marty Robbins
DYEAR=1991
DGENRE=Country
TTITLE0=Walking Piece Of Heaven
TTITLE1=Love Me
TTITLE2=Twentiety Century Drifter
TTITLE3=Don't You Think
TTITLE4=Life
TTITLE5=A Man And A Train
TTITLE6=Crawlin' On My Knees
TTITLE7=It Takes Faith
TTITLE8=Shotgun Rider
TTITLE9=Two Gun Daddy
EXTD=
EXTT0=
EXTT1=
EXTT2=
EXTT3=
EXTT4=
EXTT5=
EXTT6=
EXTT7=
EXTT8=
EXTT9=
PLAYORDER=
